# xmcd CD database file
#
# Track frame offsets:
#	150
#	20892
#	44274
#	64769
#	84087
#	105171
#	126230
#	140735
#	163696
#	175867
#	191819
#	213445
#	227988
#	245122
#	265252
#
# Disc length: 3801 seconds
#
# Revision: 4
# Processed by: cddbd v1.4PL0 Copyright (c) Steve Scherf et al.
# Submitted via: CDex 1.50Beta7
#
DISCID=d90ed70f
DTITLE=Various Artist - New Age - Hilly Scenery
DYEAR=2002
DGENRE=New Age
TTITLE0=Endless Love
TTITLE1=Autumn Leave
TTITLE2=Yesterday Once More
TTITLE3=Once Love Story
TTITLE4=Love Is Blue
TTITLE5=Myself
TTITLE6=Say You, Say Me
TTITLE7=I Just Call To Say I Love You
TTITLE8=Sunrise And Wine
TTITLE9=Sunrise
TTITLE10=Casablanca
TTITLE11=I Like Chopin
TTITLE12=Pleasantly Surprised
TTITLE13=Romance
TTITLE14=Coincident
EXTD=YEAR: 2002
EXTT0=
EXTT1=
EXTT2=
EXTT3=
EXTT4=
EXTT5=
EXTT6=
EXTT7=
EXTT8=
EXTT9=
EXTT10=
EXTT11=
EXTT12=
EXTT13=
EXTT14=
PLAYORDER=
